<svg width="32" height="32" viewBox="0 0 32 32" fill="none" xmlns="http://www.w3.org/2000/svg">
<path d="M28.0499 3.0125H16.8241C16.4021 1.28569 14.8425 0 12.9875 0C11.1325 0 9.57289 1.28569 9.15083 3.0125H3.94995C3.4322 3.0125 3.01245 3.43225 3.01245 3.95V31.0625C3.01245 31.5802 3.4322 32 3.94995 32H28.0499C28.5677 32 28.9874 31.5802 28.9874 31.0625V3.95C28.9874 3.43225 28.5677 3.0125 28.0499 3.0125ZM12.9875 1.875C13.7944 1.875 14.4946 2.33825 14.8377 3.0125H11.1373C11.4803 2.33825 12.1806 1.875 12.9875 1.875ZM27.1124 30.125H4.88745V4.8875H9.03745V9.975C9.03745 12.1531 10.8094 13.925 12.9874 13.925C15.1655 13.925 16.9374 12.153 16.9374 9.975V8.97081C16.9374 8.45306 16.5176 8.03331 15.9999 8.03331C15.4821 8.03331 15.0624 8.45306 15.0624 8.97081V9.975C15.0624 11.1192 14.1315 12.05 12.9874 12.05C11.8433 12.05 10.9125 11.1191 10.9125 9.975V4.8875H27.1124V30.125Z" fill="#6B6B6B"/>
<path d="M22.025 24.0999H9.9751C9.45735 24.0999 9.0376 24.5196 9.0376 25.0374C9.0376 25.5551 9.45735 25.9749 9.9751 25.9749H22.025C22.5428 25.9749 22.9625 25.5551 22.9625 25.0374C22.9625 24.5195 22.5428 24.0999 22.025 24.0999Z" fill="#6B6B6B"/>
<path d="M22.025 18.075H9.9751C9.45728 18.075 9.0376 18.4947 9.0376 19.0125C9.0376 19.5302 9.45735 19.95 9.9751 19.95H22.025C22.5428 19.95 22.9625 19.5302 22.9625 19.0125C22.9625 18.4947 22.5428 18.075 22.025 18.075Z" fill="#6B6B6B"/>
</svg>
