<svg width="144" height="158" viewBox="0 0 144 158" fill="none" xmlns="http://www.w3.org/2000/svg">
<g filter="url(#filter0_ii)">
<rect x="32" y="7" width="80" height="80" rx="40" fill="url(#paint0_linear)"/>
<rect x="32" y="7" width="80" height="80" rx="40" fill="url(#paint1_linear)" fill-opacity="0.2" style="mix-blend-mode:soft-light"/>
</g>
<path d="M88.3283 25.9761H55.6713C53.5902 25.9761 51.9032 27.6631 51.9032 29.7442V67.4254C51.9032 69.5064 53.5902 71.1935 55.6713 71.1935H88.3283C90.4094 71.1935 92.0964 69.5064 92.0964 67.4254V29.7442C92.0964 27.6631 90.4094 25.9761 88.3283 25.9761Z" fill="white"/>
<g filter="url(#filter1_ii)">
<path d="M88.3283 25.9761H55.6713C53.5902 25.9761 51.9032 27.6631 51.9032 29.7442V67.4254C51.9032 69.5064 53.5902 71.1935 55.6713 71.1935H88.3283C90.4094 71.1935 92.0964 69.5064 92.0964 67.4254V29.7442C92.0964 27.6631 90.4094 25.9761 88.3283 25.9761Z" fill="url(#paint2_linear)"/>
<path d="M88.3283 25.9761H55.6713C53.5902 25.9761 51.9032 27.6631 51.9032 29.7442V67.4254C51.9032 69.5064 53.5902 71.1935 55.6713 71.1935H88.3283C90.4094 71.1935 92.0964 69.5064 92.0964 67.4254V29.7442C92.0964 27.6631 90.4094 25.9761 88.3283 25.9761Z" fill="url(#paint3_radial)" fill-opacity="0.8"/>
<path d="M88.3283 25.9761H55.6713C53.5902 25.9761 51.9032 27.6631 51.9032 29.7442V67.4254C51.9032 69.5064 53.5902 71.1935 55.6713 71.1935H88.3283C90.4094 71.1935 92.0964 69.5064 92.0964 67.4254V29.7442C92.0964 27.6631 90.4094 25.9761 88.3283 25.9761Z" fill="url(#paint4_radial)" fill-opacity="0.8"/>
<path d="M88.3283 25.9761H55.6713C53.5902 25.9761 51.9032 27.6631 51.9032 29.7442V67.4254C51.9032 69.5064 53.5902 71.1935 55.6713 71.1935H88.3283C90.4094 71.1935 92.0964 69.5064 92.0964 67.4254V29.7442C92.0964 27.6631 90.4094 25.9761 88.3283 25.9761Z" fill="url(#paint5_radial)" fill-opacity="0.8"/>
</g>
<g filter="url(#filter2_ddii)">
<path fill-rule="evenodd" clip-rule="evenodd" d="M75.7672 19.6956C77.3321 19.6956 78.6742 20.6496 79.2437 22.0078C79.2934 22.1262 79.4068 22.2078 79.5353 22.2077V22.2077C81.6164 22.2077 83.3034 23.8947 83.3034 25.9758C83.3034 28.0569 81.6164 29.7439 79.5353 29.7439H64.4628C62.3817 29.7439 60.6947 28.0569 60.6947 25.9758C60.6947 23.8947 62.3817 22.2077 64.4628 22.2077V22.2077C64.5913 22.2078 64.7047 22.1262 64.7544 22.0078C65.3239 20.6496 66.666 19.6956 68.2309 19.6956H75.7672Z" fill="#FF5C7A"/>
</g>
<g filter="url(#filter3_dii)">
<path fill-rule="evenodd" clip-rule="evenodd" d="M64.0059 47.4808C63.0249 46.4997 63.0249 44.9092 64.0059 43.9282C64.9869 42.9471 66.5775 42.9471 67.5585 43.9282L68.9898 45.3595C70.1614 46.531 72.0609 46.531 73.2325 45.3595L76.4401 42.1519C77.4211 41.1708 79.0117 41.1708 79.9927 42.1519C80.9737 43.1329 80.9737 44.7234 79.9927 45.7045L72.8875 52.8097C71.951 53.7461 70.4592 53.7887 69.4723 52.9374L69.3348 52.8097L64.0059 47.4808Z" fill="white"/>
</g>
<defs>
<filter id="filter0_ii" x="26.6151" y="1.61506" width="90.7699" height="90.7699" filterUnits="userSpaceOnUse" color-interpolation-filters="sRGB">
<feFlood flood-opacity="0" result="BackgroundImageFix"/>
<feBlend mode="normal" in="SourceGraphic" in2="BackgroundImageFix" result="shape"/>
<feColorMatrix in="SourceAlpha" type="matrix" values="0 0 0 0 0 0 0 0 0 0 0 0 0 0 0 0 0 0 127 0" result="hardAlpha"/>
<feOffset dx="5.38494" dy="5.38494"/>
<feGaussianBlur stdDeviation="2.69247"/>
<feComposite in2="hardAlpha" operator="arithmetic" k2="-1" k3="1"/>
<feColorMatrix type="matrix" values="0 0 0 0 1 0 0 0 0 1 0 0 0 0 1 0 0 0 0.2 0"/>
<feBlend mode="normal" in2="shape" result="effect1_innerShadow"/>
<feColorMatrix in="SourceAlpha" type="matrix" values="0 0 0 0 0 0 0 0 0 0 0 0 0 0 0 0 0 0 127 0" result="hardAlpha"/>
<feOffset dx="-5.38494" dy="-5.38494"/>
<feGaussianBlur stdDeviation="2.69247"/>
<feComposite in2="hardAlpha" operator="arithmetic" k2="-1" k3="1"/>
<feColorMatrix type="matrix" values="0 0 0 0 0 0 0 0 0 0 0 0 0 0 0 0 0 0 0.05 0"/>
<feBlend mode="normal" in2="effect1_innerShadow" result="effect2_innerShadow"/>
</filter>
<filter id="filter1_ii" x="17.2139" y="1.01607" width="74.8825" height="70.1774" filterUnits="userSpaceOnUse" color-interpolation-filters="sRGB">
<feFlood flood-opacity="0" result="BackgroundImageFix"/>
<feBlend mode="normal" in="SourceGraphic" in2="BackgroundImageFix" result="shape"/>
<feColorMatrix in="SourceAlpha" type="matrix" values="0 0 0 0 0 0 0 0 0 0 0 0 0 0 0 0 0 0 127 0" result="hardAlpha"/>
<feOffset dx="-34.6893"/>
<feGaussianBlur stdDeviation="34.6893"/>
<feComposite in2="hardAlpha" operator="arithmetic" k2="-1" k3="1"/>
<feColorMatrix type="matrix" values="0 0 0 0 0.80575 0 0 0 0 0.7375 0 0 0 0 1 0 0 0 0.3 0"/>
<feBlend mode="normal" in2="shape" result="effect1_innerShadow"/>
<feColorMatrix in="SourceAlpha" type="matrix" values="0 0 0 0 0 0 0 0 0 0 0 0 0 0 0 0 0 0 127 0" result="hardAlpha"/>
<feOffset dy="-24.96"/>
<feGaussianBlur stdDeviation="16.64"/>
<feComposite in2="hardAlpha" operator="arithmetic" k2="-1" k3="1"/>
<feColorMatrix type="matrix" values="0 0 0 0 0.1755 0 0 0 0 0 0 0 0 0 0.675 0 0 0 0.65 0"/>
<feBlend mode="normal" in2="effect1_innerShadow" result="effect2_innerShadow"/>
</filter>
<filter id="filter2_ddii" x="29.4947" y="0.975616" width="85.0087" height="72.4483" filterUnits="userSpaceOnUse" color-interpolation-filters="sRGB">
<feFlood flood-opacity="0" result="BackgroundImageFix"/>
<feColorMatrix in="SourceAlpha" type="matrix" values="0 0 0 0 0 0 0 0 0 0 0 0 0 0 0 0 0 0 127 0"/>
<feOffset dy="12.48"/>
<feGaussianBlur stdDeviation="15.6"/>
<feColorMatrix type="matrix" values="0 0 0 0 0.295167 0 0 0 0 0 0 0 0 0 0.670833 0 0 0 0.75 0"/>
<feBlend mode="normal" in2="BackgroundImageFix" result="effect1_dropShadow"/>
<feColorMatrix in="SourceAlpha" type="matrix" values="0 0 0 0 0 0 0 0 0 0 0 0 0 0 0 0 0 0 127 0"/>
<feOffset dy="3.12"/>
<feGaussianBlur stdDeviation="2.08"/>
<feColorMatrix type="matrix" values="0 0 0 0 0.237156 0 0 0 0 0.00444442 0 0 0 0 0.533333 0 0 0 0.25 0"/>
<feBlend mode="normal" in2="effect1_dropShadow" result="effect2_dropShadow"/>
<feBlend mode="normal" in="SourceGraphic" in2="effect2_dropShadow" result="shape"/>
<feColorMatrix in="SourceAlpha" type="matrix" values="0 0 0 0 0 0 0 0 0 0 0 0 0 0 0 0 0 0 127 0" result="hardAlpha"/>
<feOffset dy="-12.48"/>
<feGaussianBlur stdDeviation="12.48"/>
<feComposite in2="hardAlpha" operator="arithmetic" k2="-1" k3="1"/>
<feColorMatrix type="matrix" values="0 0 0 0 0.525 0 0 0 0 0 0 0 0 0 0.0629999 0 0 0 0.65 0"/>
<feBlend mode="normal" in2="shape" result="effect3_innerShadow"/>
<feColorMatrix in="SourceAlpha" type="matrix" values="0 0 0 0 0 0 0 0 0 0 0 0 0 0 0 0 0 0 127 0" result="hardAlpha"/>
<feOffset dy="-6.24"/>
<feGaussianBlur stdDeviation="6.24"/>
<feComposite in2="hardAlpha" operator="arithmetic" k2="-1" k3="1"/>
<feColorMatrix type="matrix" values="0 0 0 0 0.553333 0 0 0 0 0.441667 0 0 0 0 1 0 0 0 0.65 0"/>
<feBlend mode="normal" in2="effect3_innerShadow" result="effect4_innerShadow"/>
</filter>
<filter id="filter3_dii" x="0.870136" y="20.6161" width="142.258" height="136.929" filterUnits="userSpaceOnUse" color-interpolation-filters="sRGB">
<feFlood flood-opacity="0" result="BackgroundImageFix"/>
<feColorMatrix in="SourceAlpha" type="matrix" values="0 0 0 0 0 0 0 0 0 0 0 0 0 0 0 0 0 0 127 0"/>
<feOffset dy="41.6"/>
<feGaussianBlur stdDeviation="31.2"/>
<feColorMatrix type="matrix" values="0 0 0 0 0.227561 0 0 0 0 0.00928819 0 0 0 0 0.445833 0 0 0 0.7 0"/>
<feBlend mode="normal" in2="BackgroundImageFix" result="effect1_dropShadow"/>
<feBlend mode="normal" in="SourceGraphic" in2="effect1_dropShadow" result="shape"/>
<feColorMatrix in="SourceAlpha" type="matrix" values="0 0 0 0 0 0 0 0 0 0 0 0 0 0 0 0 0 0 127 0" result="hardAlpha"/>
<feOffset dy="-16.64"/>
<feGaussianBlur stdDeviation="10.4"/>
<feComposite in2="hardAlpha" operator="arithmetic" k2="-1" k3="1"/>
<feColorMatrix type="matrix" values="0 0 0 0 0.32 0 0 0 0 0 0 0 0 0 1 0 0 0 0.5 0"/>
<feBlend mode="normal" in2="shape" result="effect2_innerShadow"/>
<feColorMatrix in="SourceAlpha" type="matrix" values="0 0 0 0 0 0 0 0 0 0 0 0 0 0 0 0 0 0 127 0" result="hardAlpha"/>
<feOffset dy="-8.40051"/>
<feGaussianBlur stdDeviation="5.60034"/>
<feComposite in2="hardAlpha" operator="arithmetic" k2="-1" k3="1"/>
<feColorMatrix type="matrix" values="0 0 0 0 0.975833 0 0 0 0 0.879167 0 0 0 0 1 0 0 0 0.75 0"/>
<feBlend mode="normal" in2="effect2_innerShadow" result="effect3_innerShadow"/>
</filter>
<linearGradient id="paint0_linear" x1="72" y1="7" x2="72" y2="87" gradientUnits="userSpaceOnUse">
<stop stop-color="#E2BDFF"/>
<stop offset="1" stop-color="#DBB0FD"/>
</linearGradient>
<linearGradient id="paint1_linear" x1="72" y1="7" x2="72" y2="87" gradientUnits="userSpaceOnUse">
<stop offset="0.328125" stop-color="white"/>
<stop offset="1" stop-opacity="0.1"/>
</linearGradient>
<linearGradient id="paint2_linear" x1="92.0964" y1="21.225" x2="48.9824" y2="70.1726" gradientUnits="userSpaceOnUse">
<stop stop-color="#7041EE"/>
<stop offset="0.527788" stop-color="#8D41EE"/>
<stop offset="1" stop-color="#D641EE"/>
</linearGradient>
<radialGradient id="paint3_radial" cx="0" cy="0" r="1" gradientUnits="userSpaceOnUse" gradientTransform="translate(62.8031 16.1462) rotate(95.4785) scale(55.2999 82.1361)">
<stop stop-color="#52B6FF"/>
<stop offset="1" stop-color="#8F41EE" stop-opacity="0"/>
</radialGradient>
<radialGradient id="paint4_radial" cx="0" cy="0" r="1" gradientUnits="userSpaceOnUse" gradientTransform="translate(62.6328 28.5974) rotate(64.8899) scale(22.0735 59.0108)">
<stop stop-color="#9DD6FF"/>
<stop offset="1" stop-color="#8F41EE" stop-opacity="0"/>
</radialGradient>
<radialGradient id="paint5_radial" cx="0" cy="0" r="1" gradientUnits="userSpaceOnUse" gradientTransform="translate(111.171 60.5444) rotate(141.077) scale(35.4636 50.3282)">
<stop stop-color="#5263FF"/>
<stop offset="1" stop-color="#8F41EE" stop-opacity="0"/>
</radialGradient>
</defs>
</svg>
