<svg width="122" height="122" viewBox="0 0 122 122" fill="none" xmlns="http://www.w3.org/2000/svg">
<g filter="url(#filter0_ii)">
<rect x="41" y="14.1356" width="40" height="40" rx="20" fill="url(#paint0_linear)"/>
<rect x="41" y="14.1356" width="40" height="40" rx="20" fill="url(#paint1_linear)" fill-opacity="0.2" style="mix-blend-mode:soft-light"/>
</g>
<g filter="url(#filter1_dii)">
<path d="M68.8938 26.2444C69.9225 27.2756 70.7296 28.4763 71.2926 29.8139C71.873 31.1989 72.1669 32.671 72.1669 34.1855C72.1594 35.695 71.8605 37.1572 71.2726 38.5322C70.7072 39.8599 69.8976 41.0505 68.8689 42.0693C67.8426 43.0881 66.6445 43.8852 65.3118 44.4407C63.9493 45.0062 62.502 45.2951 61.01 45.2951H60.9576C60.4975 45.2931 60.0383 45.2624 59.5834 45.2039C57.1129 44.8861 54.6804 44.0995 52.1895 44.0995C51.5568 44.0995 51.0437 43.5863 51.0437 42.9536C51.0437 40.4643 50.2584 38.0334 49.9397 35.5645C49.8809 35.1087 49.85 34.6488 49.848 34.188C49.8406 32.681 50.1295 31.2138 50.7024 29.8338C51.2529 28.5012 52.055 27.3055 53.0713 26.2768C54.0901 25.248 55.2808 24.4409 56.6085 23.873C57.9835 23.2851 59.4456 22.9862 60.9552 22.9788H61.005C62.502 22.9788 63.9567 23.2702 65.3268 23.8456C66.6644 24.4061 67.865 25.2156 68.8938 26.2444Z" fill="white"/>
</g>
<g filter="url(#filter2_dii)">
<path d="M66.6495 35.5306C65.8997 35.5306 65.2944 34.9078 65.2944 34.1357C65.2944 33.3635 65.8997 32.7407 66.6495 32.7407C67.3993 32.7407 68.0046 33.3635 68.0046 34.1357C68.0071 34.9078 67.3993 35.5306 66.6495 35.5306ZM61.0025 35.5306C60.2528 35.5306 59.6475 34.9078 59.6475 34.1357C59.6475 33.3635 60.2528 32.7407 61.0025 32.7407C61.7523 32.7407 62.3576 33.3635 62.3576 34.1357C62.3551 34.9078 61.7498 35.5306 61.0025 35.5306Z" fill="#FFA9A9"/>
</g>
<g filter="url(#filter3_dii)">
<path d="M53.9978 34.1357C53.9978 34.3188 54.0329 34.5002 54.101 34.6695C54.1691 34.8387 54.2689 34.9925 54.3947 35.122C54.5205 35.2515 54.6699 35.3543 54.8343 35.4244C54.9987 35.4945 55.1749 35.5306 55.3529 35.5306C55.5308 35.5306 55.707 35.4945 55.8714 35.4244C56.0358 35.3543 56.1852 35.2515 56.3111 35.122C56.4369 34.9925 56.5367 34.8387 56.6048 34.6695C56.6729 34.5002 56.7079 34.3188 56.7079 34.1357C56.7079 33.7657 56.5652 33.4109 56.3111 33.1493C56.0569 32.8877 55.7123 32.7407 55.3529 32.7407C54.9935 32.7407 54.6488 32.8877 54.3947 33.1493C54.1406 33.4109 53.9978 33.7657 53.9978 34.1357Z" fill="#FFA9A9"/>
</g>
<defs>
<filter id="filter0_ii" x="38.9652" y="12.1008" width="44.0696" height="44.0696" filterUnits="userSpaceOnUse" color-interpolation-filters="sRGB">
<feFlood flood-opacity="0" result="BackgroundImageFix"/>
<feBlend mode="normal" in="SourceGraphic" in2="BackgroundImageFix" result="shape"/>
<feColorMatrix in="SourceAlpha" type="matrix" values="0 0 0 0 0 0 0 0 0 0 0 0 0 0 0 0 0 0 127 0" result="hardAlpha"/>
<feOffset dx="2.0348" dy="2.0348"/>
<feGaussianBlur stdDeviation="1.0174"/>
<feComposite in2="hardAlpha" operator="arithmetic" k2="-1" k3="1"/>
<feColorMatrix type="matrix" values="0 0 0 0 1 0 0 0 0 1 0 0 0 0 1 0 0 0 0.2 0"/>
<feBlend mode="normal" in2="shape" result="effect1_innerShadow"/>
<feColorMatrix in="SourceAlpha" type="matrix" values="0 0 0 0 0 0 0 0 0 0 0 0 0 0 0 0 0 0 127 0" result="hardAlpha"/>
<feOffset dx="-2.0348" dy="-2.0348"/>
<feGaussianBlur stdDeviation="1.0174"/>
<feComposite in2="hardAlpha" operator="arithmetic" k2="-1" k3="1"/>
<feColorMatrix type="matrix" values="0 0 0 0 0 0 0 0 0 0 0 0 0 0 0 0 0 0 0.05 0"/>
<feBlend mode="normal" in2="effect1_innerShadow" result="effect2_innerShadow"/>
</filter>
<filter id="filter1_dii" x="0.60569" y="0.595934" width="120.803" height="120.801" filterUnits="userSpaceOnUse" color-interpolation-filters="sRGB">
<feFlood flood-opacity="0" result="BackgroundImageFix"/>
<feColorMatrix in="SourceAlpha" type="matrix" values="0 0 0 0 0 0 0 0 0 0 0 0 0 0 0 0 0 0 127 0"/>
<feOffset dy="26.8594"/>
<feGaussianBlur stdDeviation="24.6211"/>
<feColorMatrix type="matrix" values="0 0 0 0 0.816667 0 0 0 0 0.172112 0 0 0 0 0.030625 0 0 0 0.25 0"/>
<feBlend mode="normal" in2="BackgroundImageFix" result="effect1_dropShadow"/>
<feBlend mode="normal" in="SourceGraphic" in2="effect1_dropShadow" result="shape"/>
<feColorMatrix in="SourceAlpha" type="matrix" values="0 0 0 0 0 0 0 0 0 0 0 0 0 0 0 0 0 0 127 0" result="hardAlpha"/>
<feOffset dy="-17.9063"/>
<feGaussianBlur stdDeviation="11.1914"/>
<feComposite in2="hardAlpha" operator="arithmetic" k2="-1" k3="1"/>
<feColorMatrix type="matrix" values="0 0 0 0 1 0 0 0 0 0.78 0 0 0 0 0 0 0 0 0.29 0"/>
<feBlend mode="normal" in2="shape" result="effect2_innerShadow"/>
<feColorMatrix in="SourceAlpha" type="matrix" values="0 0 0 0 0 0 0 0 0 0 0 0 0 0 0 0 0 0 127 0" result="hardAlpha"/>
<feOffset dy="-6.71485"/>
<feGaussianBlur stdDeviation="4.47656"/>
<feComposite in2="hardAlpha" operator="arithmetic" k2="-1" k3="1"/>
<feColorMatrix type="matrix" values="0 0 0 0 1 0 0 0 0 1 0 0 0 0 1 0 0 0 0.75 0"/>
<feBlend mode="normal" in2="effect2_innerShadow" result="effect3_innerShadow"/>
</filter>
<filter id="filter2_dii" x="37.2646" y="22.5667" width="53.1228" height="47.5555" filterUnits="userSpaceOnUse" color-interpolation-filters="sRGB">
<feFlood flood-opacity="0" result="BackgroundImageFix"/>
<feColorMatrix in="SourceAlpha" type="matrix" values="0 0 0 0 0 0 0 0 0 0 0 0 0 0 0 0 0 0 127 0"/>
<feOffset dy="12.2088"/>
<feGaussianBlur stdDeviation="11.1914"/>
<feColorMatrix type="matrix" values="0 0 0 0 0.8625 0 0 0 0 0 0 0 0 0 0 0 0 0 0.25 0"/>
<feBlend mode="normal" in2="BackgroundImageFix" result="effect1_dropShadow"/>
<feBlend mode="normal" in="SourceGraphic" in2="effect1_dropShadow" result="shape"/>
<feColorMatrix in="SourceAlpha" type="matrix" values="0 0 0 0 0 0 0 0 0 0 0 0 0 0 0 0 0 0 127 0" result="hardAlpha"/>
<feOffset dy="-8.13921"/>
<feGaussianBlur stdDeviation="5.08701"/>
<feComposite in2="hardAlpha" operator="arithmetic" k2="-1" k3="1"/>
<feColorMatrix type="matrix" values="0 0 0 0 0.925 0 0 0 0 0.320667 0 0 0 0 0.0616667 0 0 0 0.29 0"/>
<feBlend mode="normal" in2="shape" result="effect2_innerShadow"/>
<feColorMatrix in="SourceAlpha" type="matrix" values="0 0 0 0 0 0 0 0 0 0 0 0 0 0 0 0 0 0 127 0" result="hardAlpha"/>
<feOffset dy="-3.0522"/>
<feGaussianBlur stdDeviation="2.0348"/>
<feComposite in2="hardAlpha" operator="arithmetic" k2="-1" k3="1"/>
<feColorMatrix type="matrix" values="0 0 0 0 1 0 0 0 0 1 0 0 0 0 1 0 0 0 0.75 0"/>
<feBlend mode="normal" in2="effect2_innerShadow" result="effect3_innerShadow"/>
</filter>
<filter id="filter3_dii" x="31.615" y="22.5667" width="47.4758" height="47.5555" filterUnits="userSpaceOnUse" color-interpolation-filters="sRGB">
<feFlood flood-opacity="0" result="BackgroundImageFix"/>
<feColorMatrix in="SourceAlpha" type="matrix" values="0 0 0 0 0 0 0 0 0 0 0 0 0 0 0 0 0 0 127 0"/>
<feOffset dy="12.2088"/>
<feGaussianBlur stdDeviation="11.1914"/>
<feColorMatrix type="matrix" values="0 0 0 0 0.8625 0 0 0 0 0 0 0 0 0 0 0 0 0 0.25 0"/>
<feBlend mode="normal" in2="BackgroundImageFix" result="effect1_dropShadow"/>
<feBlend mode="normal" in="SourceGraphic" in2="effect1_dropShadow" result="shape"/>
<feColorMatrix in="SourceAlpha" type="matrix" values="0 0 0 0 0 0 0 0 0 0 0 0 0 0 0 0 0 0 127 0" result="hardAlpha"/>
<feOffset dy="-8.13921"/>
<feGaussianBlur stdDeviation="5.08701"/>
<feComposite in2="hardAlpha" operator="arithmetic" k2="-1" k3="1"/>
<feColorMatrix type="matrix" values="0 0 0 0 0.925 0 0 0 0 0.320667 0 0 0 0 0.0616667 0 0 0 0.29 0"/>
<feBlend mode="normal" in2="shape" result="effect2_innerShadow"/>
<feColorMatrix in="SourceAlpha" type="matrix" values="0 0 0 0 0 0 0 0 0 0 0 0 0 0 0 0 0 0 127 0" result="hardAlpha"/>
<feOffset dy="-3.0522"/>
<feGaussianBlur stdDeviation="2.0348"/>
<feComposite in2="hardAlpha" operator="arithmetic" k2="-1" k3="1"/>
<feColorMatrix type="matrix" values="0 0 0 0 1 0 0 0 0 1 0 0 0 0 1 0 0 0 0.75 0"/>
<feBlend mode="normal" in2="effect2_innerShadow" result="effect3_innerShadow"/>
</filter>
<linearGradient id="paint0_linear" x1="61" y1="14.1356" x2="61" y2="54.1356" gradientUnits="userSpaceOnUse">
<stop stop-color="#FADB7E"/>
<stop offset="1" stop-color="#FADB7E"/>
</linearGradient>
<linearGradient id="paint1_linear" x1="61" y1="14.1356" x2="61" y2="54.1356" gradientUnits="userSpaceOnUse">
<stop offset="0.328125" stop-color="white"/>
<stop offset="1" stop-opacity="0.1"/>
</linearGradient>
</defs>
</svg>
