<svg width="70" height="80" viewBox="0 0 70 80" fill="none" xmlns="http://www.w3.org/2000/svg">
<path d="M3 20C3 8.95431 11.9543 0 23 0H47C58.0457 0 67 8.95431 67 20V44C67 55.0457 58.0457 64 47 64H23C11.9543 64 3 55.0457 3 44V20Z" fill="#E3F7FF"/>
<g filter="url(#filter0_d)">
<path d="M45.6667 16H24.3333C21.3929 16 19 18.3929 19 21.3333V26.6667V30.2222V42.6667C19 45.6071 21.3929 48 24.3333 48H45.6667C48.6071 48 51 45.6071 51 42.6667V30.2222V26.6667V21.3333C51 18.3929 48.6071 16 45.6667 16Z" fill="#7DA2FF"/>
</g>
<g filter="url(#filter1_dii)">
<path d="M27.8891 21.3335C28.8704 21.3335 29.6669 22.1282 29.6669 23.1113C29.6669 24.0944 28.8704 24.8891 27.8891 24.8891C26.9078 24.8891 26.1113 24.0944 26.1113 23.1113C26.1113 22.1282 26.9078 21.3335 27.8891 21.3335Z" fill="white"/>
</g>
<g filter="url(#filter2_dii)">
<path d="M35.0002 21.3335C35.9815 21.3335 36.778 22.1282 36.778 23.1113C36.778 24.0944 35.9815 24.8891 35.0002 24.8891C34.0189 24.8891 33.2224 24.0944 33.2224 23.1113C33.2224 22.1282 34.0189 21.3335 35.0002 21.3335Z" fill="white"/>
</g>
<g filter="url(#filter3_dii)">
<path d="M47.4447 42.6666C47.4447 43.6479 46.6465 44.4444 45.6669 44.4444H24.3336C23.354 44.4444 22.5558 43.6479 22.5558 42.6666V37.7795C22.5558 33.6057 25.9393 30.2222 30.1132 30.2222H39.8873C44.0611 30.2222 47.4447 33.6057 47.4447 37.7795V42.6666Z" fill="white"/>
</g>
<defs>
<filter id="filter0_d" x="9" y="6" width="52" height="52" filterUnits="userSpaceOnUse" color-interpolation-filters="sRGB">
<feFlood flood-opacity="0" result="BackgroundImageFix"/>
<feColorMatrix in="SourceAlpha" type="matrix" values="0 0 0 0 0 0 0 0 0 0 0 0 0 0 0 0 0 0 127 0"/>
<feOffset/>
<feGaussianBlur stdDeviation="5"/>
<feColorMatrix type="matrix" values="0 0 0 0 0.890196 0 0 0 0 0.968627 0 0 0 0 1 0 0 0 1 0"/>
<feBlend mode="normal" in2="BackgroundImageFix" result="effect1_dropShadow"/>
<feBlend mode="normal" in="SourceGraphic" in2="effect1_dropShadow" result="shape"/>
</filter>
<filter id="filter1_dii" x="3.7285" y="11.1595" width="48.3212" height="48.3212" filterUnits="userSpaceOnUse" color-interpolation-filters="sRGB">
<feFlood flood-opacity="0" result="BackgroundImageFix"/>
<feColorMatrix in="SourceAlpha" type="matrix" values="0 0 0 0 0 0 0 0 0 0 0 0 0 0 0 0 0 0 127 0"/>
<feOffset dy="12.2088"/>
<feGaussianBlur stdDeviation="11.1914"/>
<feColorMatrix type="matrix" values="0 0 0 0 0 0 0 0 0 0.0758334 0 0 0 0 0.758333 0 0 0 0.3 0"/>
<feBlend mode="normal" in2="BackgroundImageFix" result="effect1_dropShadow"/>
<feBlend mode="normal" in="SourceGraphic" in2="effect1_dropShadow" result="shape"/>
<feColorMatrix in="SourceAlpha" type="matrix" values="0 0 0 0 0 0 0 0 0 0 0 0 0 0 0 0 0 0 127 0" result="hardAlpha"/>
<feOffset dy="-6.0459"/>
<feGaussianBlur stdDeviation="3.77869"/>
<feComposite in2="hardAlpha" operator="arithmetic" k2="-1" k3="1"/>
<feColorMatrix type="matrix" values="0 0 0 0 0.690196 0 0 0 0 0.85098 0 0 0 0 1 0 0 0 1 0"/>
<feBlend mode="normal" in2="shape" result="effect2_innerShadow"/>
<feColorMatrix in="SourceAlpha" type="matrix" values="0 0 0 0 0 0 0 0 0 0 0 0 0 0 0 0 0 0 127 0" result="hardAlpha"/>
<feOffset dy="-3.0522"/>
<feGaussianBlur stdDeviation="2.0348"/>
<feComposite in2="hardAlpha" operator="arithmetic" k2="-1" k3="1"/>
<feColorMatrix type="matrix" values="0 0 0 0 1 0 0 0 0 1 0 0 0 0 1 0 0 0 0.75 0"/>
<feBlend mode="normal" in2="effect2_innerShadow" result="effect3_innerShadow"/>
</filter>
<filter id="filter2_dii" x="10.8396" y="11.1595" width="48.3212" height="48.3212" filterUnits="userSpaceOnUse" color-interpolation-filters="sRGB">
<feFlood flood-opacity="0" result="BackgroundImageFix"/>
<feColorMatrix in="SourceAlpha" type="matrix" values="0 0 0 0 0 0 0 0 0 0 0 0 0 0 0 0 0 0 127 0"/>
<feOffset dy="12.2088"/>
<feGaussianBlur stdDeviation="11.1914"/>
<feColorMatrix type="matrix" values="0 0 0 0 0 0 0 0 0 0.0758334 0 0 0 0 0.758333 0 0 0 0.3 0"/>
<feBlend mode="normal" in2="BackgroundImageFix" result="effect1_dropShadow"/>
<feBlend mode="normal" in="SourceGraphic" in2="effect1_dropShadow" result="shape"/>
<feColorMatrix in="SourceAlpha" type="matrix" values="0 0 0 0 0 0 0 0 0 0 0 0 0 0 0 0 0 0 127 0" result="hardAlpha"/>
<feOffset dy="-6.0459"/>
<feGaussianBlur stdDeviation="3.77869"/>
<feComposite in2="hardAlpha" operator="arithmetic" k2="-1" k3="1"/>
<feColorMatrix type="matrix" values="0 0 0 0 0.690196 0 0 0 0 0.85098 0 0 0 0 1 0 0 0 1 0"/>
<feBlend mode="normal" in2="shape" result="effect2_innerShadow"/>
<feColorMatrix in="SourceAlpha" type="matrix" values="0 0 0 0 0 0 0 0 0 0 0 0 0 0 0 0 0 0 127 0" result="hardAlpha"/>
<feOffset dy="-3.0522"/>
<feGaussianBlur stdDeviation="2.0348"/>
<feComposite in2="hardAlpha" operator="arithmetic" k2="-1" k3="1"/>
<feColorMatrix type="matrix" values="0 0 0 0 1 0 0 0 0 1 0 0 0 0 1 0 0 0 0.75 0"/>
<feBlend mode="normal" in2="effect2_innerShadow" result="effect3_innerShadow"/>
</filter>
<filter id="filter3_dii" x="0.172962" y="20.0482" width="69.6545" height="58.9879" filterUnits="userSpaceOnUse" color-interpolation-filters="sRGB">
<feFlood flood-opacity="0" result="BackgroundImageFix"/>
<feColorMatrix in="SourceAlpha" type="matrix" values="0 0 0 0 0 0 0 0 0 0 0 0 0 0 0 0 0 0 127 0"/>
<feOffset dy="12.2088"/>
<feGaussianBlur stdDeviation="11.1914"/>
<feColorMatrix type="matrix" values="0 0 0 0 0 0 0 0 0 0.0450001 0 0 0 0 0.45 0 0 0 0.25 0"/>
<feBlend mode="normal" in2="BackgroundImageFix" result="effect1_dropShadow"/>
<feBlend mode="normal" in="SourceGraphic" in2="effect1_dropShadow" result="shape"/>
<feColorMatrix in="SourceAlpha" type="matrix" values="0 0 0 0 0 0 0 0 0 0 0 0 0 0 0 0 0 0 127 0" result="hardAlpha"/>
<feOffset dy="-8.13921"/>
<feGaussianBlur stdDeviation="5.08701"/>
<feComposite in2="hardAlpha" operator="arithmetic" k2="-1" k3="1"/>
<feColorMatrix type="matrix" values="0 0 0 0 0.690196 0 0 0 0 0.776941 0 0 0 0 1 0 0 0 1 0"/>
<feBlend mode="normal" in2="shape" result="effect2_innerShadow"/>
<feColorMatrix in="SourceAlpha" type="matrix" values="0 0 0 0 0 0 0 0 0 0 0 0 0 0 0 0 0 0 127 0" result="hardAlpha"/>
<feOffset dy="-3.0522"/>
<feGaussianBlur stdDeviation="2.0348"/>
<feComposite in2="hardAlpha" operator="arithmetic" k2="-1" k3="1"/>
<feColorMatrix type="matrix" values="0 0 0 0 1 0 0 0 0 1 0 0 0 0 1 0 0 0 0.75 0"/>
<feBlend mode="normal" in2="effect2_innerShadow" result="effect3_innerShadow"/>
</filter>
</defs>
</svg>
