<svg width="48" height="48" viewBox="0 0 48 48" fill="none" xmlns="http://www.w3.org/2000/svg">
<g clip-path="url(#clip0)">
<path d="M45.9069 19.6547C47.7069 34.0951 35.5614 46.2181 21.1285 44.3986C11.2885 43.1581 3.34306 35.2141 2.09807 25.3756C0.269575 10.9202 12.439 -1.24325 26.8975 0.597239C36.7404 1.84973 44.6784 9.8087 45.9069 19.6547Z" fill="#FFD93B"/>
<path d="M45.9355 25.0936C44.7835 35.1781 36.625 43.3155 26.536 44.439C18.5801 45.3255 11.3471 41.9821 6.80811 36.3616C11.1956 39.9106 16.9721 41.8021 23.194 41.1151C33.3175 39.9976 41.5 31.8136 42.619 21.6901C43.306 15.4682 41.4145 9.69318 37.8655 5.3042C43.492 9.85518 46.8475 17.1137 45.9355 25.0936Z" fill="#F4C534"/>
<path d="M31.1244 33.4591V42.831C31.1244 44.9565 29.7579 46.917 27.7014 47.4825C25.2309 48.1725 22.7604 48.1725 20.2899 47.4825C18.2334 46.917 16.8669 44.9565 16.8669 42.831V33.1546C16.8669 28.9861 20.4414 25.6606 24.6924 26.0611C28.4064 26.4196 31.1244 29.7316 31.1244 33.4591Z" fill="#FFD93B"/>
<path d="M23.995 46.6199C22.891 46.6199 21.769 46.4639 20.6605 46.1534C19.2385 45.7619 18.2485 44.3969 18.2485 42.8309V33.1559C18.2485 29.9864 20.8285 27.4094 24.001 27.4094C24.187 27.4094 24.3745 27.4169 24.565 27.4349C27.469 27.7169 29.746 30.3629 29.746 33.4604V42.8309C29.746 44.3969 28.756 45.7634 27.337 46.1519C26.2225 46.4639 25.1005 46.6199 23.995 46.6199Z" fill="#3E4347"/>
<path d="M23.995 46.6199C25.1005 46.6199 26.2225 46.4639 27.337 46.1519C29.6455 45.5174 31.078 42.135 27.9115 39.378C26.413 38.1015 25.576 39.477 22.7815 39.477C21.4016 39.477 19.0646 39.2865 18.2471 42.3375V42.8325C18.2471 44.3984 19.2371 45.7649 20.6591 46.1549C21.7691 46.4639 22.891 46.6199 23.995 46.6199Z" fill="#E24B4B"/>
<path d="M20.9801 13.7221C21.9371 18.9451 13.6346 26.3431 13.6346 26.3431C13.6346 26.3431 3.25468 22.3666 2.29918 17.1436C1.80868 14.4706 3.57867 11.9071 6.25016 11.4166C8.29466 11.0431 10.2776 11.9941 11.3096 13.6561C11.6861 11.7361 13.2026 10.1446 15.2471 9.76964C17.9261 9.27914 20.4896 11.0491 20.9801 13.7221Z" fill="#E24B4B"/>
<path d="M27.0189 13.7221C26.0619 18.9451 34.3659 26.3431 34.3659 26.3431C34.3659 26.3431 44.7459 22.3666 45.7014 17.1436C46.1904 14.4706 44.4204 11.9071 41.7474 11.4181C39.7029 11.0431 37.7214 11.9941 36.6879 13.6561C36.3114 11.7361 34.7949 10.1446 32.7504 9.76964C30.0729 9.27914 27.5094 11.0491 27.0189 13.7221Z" fill="#E24B4B"/>
<path d="M28.2266 1.28419C28.2266 1.28419 34.6105 1.62919 38.191 8.05666C38.191 8.05666 35.3875 -3.84729 28.2266 1.28419Z" fill="#3E4347"/>
<path d="M19.7726 1.28419C19.7726 1.28419 13.3886 1.62919 9.80811 8.05666C9.80811 8.05666 12.6116 -3.84729 19.7726 1.28419Z" fill="#3E4347"/>
</g>
<defs>
<clipPath id="clip0">
<rect width="48" height="48" fill="white"/>
</clipPath>
</defs>
</svg>
