<svg width="16" height="16" viewBox="0 0 16 16" fill="none" xmlns="http://www.w3.org/2000/svg">
<path d="M15.3157 0.0528105L0.258404 7.61269C0.106467 7.68897 0.00774826 7.84153 0.000435759 8.01134C-0.00687674 8.18119 0.0782795 8.34169 0.223092 8.43075L3.74984 10.6011V15.5312C3.74984 15.733 3.87887 15.912 4.07022 15.9759C4.26159 16.0397 4.47225 15.974 4.59337 15.8127L7.00369 12.6034L12.4101 15.9304C12.5413 16.0112 12.7038 16.0223 12.8448 15.9601C12.9858 15.898 13.0872 15.7705 13.1162 15.6191L15.9906 0.559404C15.9916 0.554404 15.9925 0.549404 15.9933 0.544373C16.0548 0.164779 15.6566 -0.122815 15.3157 0.0528105ZM4.194 9.77369L1.43059 8.07312L12.4591 2.536L4.194 9.77369ZM4.68725 14.1266V10.5878L12.4512 3.78903C12.2807 4.01606 4.89031 13.8562 4.68725 14.1266ZM12.3226 14.7759L7.569 11.8506L14.691 2.36778L12.3226 14.7759Z" fill="#0052CC"/>
</svg>
