<svg width="48" height="48" viewBox="0 0 48 48" fill="none" xmlns="http://www.w3.org/2000/svg">
<g clip-path="url(#clip0)">
<path d="M24 46.2413C36.7692 46.2413 47.1207 35.8898 47.1207 23.1206C47.1207 10.3515 36.7692 0 24 0C11.2309 0 0.879395 10.3515 0.879395 23.1206C0.879395 35.8898 11.2309 46.2413 24 46.2413Z" fill="#FFD93B"/>
<path d="M47.1208 23.1207C47.1208 35.8945 36.7679 46.2413 24.0001 46.2413C16.7312 46.2413 10.2439 42.8888 6.00342 37.6359C9.96936 40.8444 15.0198 42.7583 20.5187 42.7583C33.285 42.7583 43.6393 32.4115 43.6393 19.6377C43.6393 14.1403 41.7254 9.08837 38.5169 5.12244C43.7608 9.36437 47.1208 15.8518 47.1208 23.1207Z" fill="#F4C534"/>
<path d="M33.8999 44.2913C33.3719 46.7662 30.8654 48.6247 28.1339 47.8027C25.4025 47.0077 22.599 47.0227 19.8256 47.8027C17.2351 48.5527 14.6612 46.8922 14.1032 44.2763C12.1517 34.8759 16.4911 24.0746 23.9865 24.0746C31.6484 24.0746 35.8183 35.0289 33.8999 44.2913Z" fill="#FFD93B"/>
<path d="M31.9064 43.8789C31.6019 45.3233 30.1439 46.2743 28.7234 45.8558C25.566 44.9438 22.422 44.9438 19.2766 45.8558C17.8561 46.2743 16.3981 45.3233 16.0936 43.8654C14.3567 35.4715 18.1471 26.1146 23.9925 26.1146C29.8904 26.1146 33.6314 35.509 31.9064 43.8789Z" fill="#3E4347"/>
<path d="M29.7449 44.3558C30.4274 42.5558 30.3059 40.4498 29.0264 38.6574C28.1624 37.4289 26.5785 36.9699 25.1835 37.5084C24.243 37.8714 23.199 37.9854 22.1955 37.9044C18.3256 37.5894 17.0536 41.2658 18.1921 44.3558C21.999 43.2008 25.851 43.2578 29.7449 44.3558Z" fill="#E24B4B"/>
<path d="M23.9998 41.9468C20.5544 41.9468 17.5889 42.8948 16.2209 44.2627C16.6859 45.4867 17.9924 46.2352 19.2764 45.8557C22.4204 44.9437 25.5658 44.9437 28.7233 45.8557C30.0102 46.2352 31.3182 45.4852 31.7817 44.2657C30.4167 42.8948 27.4483 41.9468 23.9998 41.9468Z" fill="white"/>
<path d="M12.8656 22.3406C8.76164 21.9221 6.24768 19.0181 7.28866 14.9142C8.34315 10.8103 12.5341 7.48633 16.6665 7.48633C20.7854 7.48633 22.4219 10.7083 22.7114 14.9412C23.0579 20.1296 17.619 22.8326 12.8656 22.3406Z" fill="white"/>
<path d="M19.8392 14.9367C19.8392 16.9857 18.1817 18.6671 16.1328 18.6671C14.0718 18.6551 12.4143 16.9857 12.4143 14.9367C12.4143 12.8877 14.0718 11.2183 16.1328 11.2183C18.1817 11.2183 19.8392 12.8877 19.8392 14.9367Z" fill="#3E4347"/>
<path d="M17.9344 13.1169C17.5044 12.687 16.9436 12.5507 16.6817 12.8125C16.4199 13.0744 16.5562 13.6352 16.9861 14.0651C17.4161 14.4951 17.9769 14.6314 18.2388 14.3695C18.5006 14.1077 18.3643 13.5469 17.9344 13.1169Z" fill="white"/>
<path d="M34.3261 22.4757C38.4855 22.0497 41.3865 19.0918 40.893 14.9143C40.3845 10.7369 36.6376 7.35144 32.5051 7.35144C28.3862 7.35144 26.3207 10.6319 25.4672 14.9428C24.4278 20.2242 29.5052 22.9767 34.3261 22.4757Z" fill="white"/>
<path d="M35.7628 14.9367C35.7628 16.9857 34.1053 18.6671 32.0563 18.6671C29.9954 18.6551 28.3379 16.9857 28.3379 14.9367C28.3379 12.8877 29.9954 11.2183 32.0563 11.2183C34.1053 11.2183 35.7628 12.8877 35.7628 14.9367Z" fill="#3E4347"/>
<path d="M33.8567 13.1186C33.4268 12.6887 32.8659 12.5524 32.6041 12.8142C32.3423 13.0761 32.4785 13.6369 32.9085 14.0668C33.3385 14.4968 33.8993 14.6331 34.1611 14.3712C34.423 14.1094 34.2867 13.5486 33.8567 13.1186Z" fill="white"/>
</g>
<defs>
<clipPath id="clip0">
<rect width="48" height="48" fill="white"/>
</clipPath>
</defs>
</svg>
